# xmcd
#
# Track frame offsets:
# 150
# 22575
# 39437
# 51799
# 65296
# 83401
# 99682
# 115607
# 138454
# 148859
# 161087
# 171333
# 188442
# 205389
# 216702
# 228752
# 241336
# 271165
#
# Disc length: 3785 seconds
#
#
# Revision: 0
# Processed by: cddbd v1.5.1PL2 Copyright (c) Steve Scherf et al.
# Submitted via: FreeRIP 2.945 
#
DISCID=f30ec712
DTITLE=varios - blues legends
DYEAR=1900
DGENRE=Blues
TTITLE0=blues in my blood
TTITLE1=crawling king snake
TTITLE2=my baby's gone
TTITLE3=ain`t ahat lovin' you baby
TTITLE4=ray charles blues
TTITLE5=the angels laid him away
TTITLE6=sonfor frank
TTITLE7=lend me your love
TTITLE8=blues before sunrise
TTITLE9=say boss man
TTITLE10=cherry red
TTITLE11=she's mine
TTITLE12=maybe tha last time
TTITLE13=hoodoo blues
TTITLE14=baby what's wrong with you
TTITLE15=come here mama
TTITLE16=hear me talkin'
TTITLE17=rock me baby
EXTD=
EXTT0=
EXTT1=
EXTT2=
EXTT3=
EXTT4=
EXTT5=
EXTT6=
EXTT7=
EXTT8=
EXTT9=
EXTT10=
EXTT11=
EXTT12=
EXTT13=
EXTT14=
EXTT15=
EXTT16=
EXTT17=
PLAYORDER=
